<?xml version="1.0" encoding="utf-8"?>
<!-- Generator: Adobe Illustrator 18.0.0, SVG Export Plug-In . SVG Version: 6.00 Build 0)  -->
<!DOCTYPE svg PUBLIC "-//W3C//DTD SVG 1.1//EN" "http://www.w3.org/Graphics/SVG/1.1/DTD/svg11.dtd">
<svg version="1.1" id="Layer_1" xmlns="http://www.w3.org/2000/svg" xmlns:xlink="http://www.w3.org/1999/xlink" x="0px" y="0px"
	 width="20px" height="20px" viewBox="0 0 20 20" enable-background="new 0 0 20 20" xml:space="preserve">
<title>Shape</title>
<desc>Created with Sketch.</desc>
<g id="Symbols" opacity="0.5">
	<g id="ic_x2F_account_x5F_circle_x2F_black" transform="translate(-2.000000, -2.000000)">
		<g id="ic_account_circle_24px">
			<path id="Shape" fill="#222222" d="M12,2C6.5,2,2,6.5,2,12s4.5,10,10,10s10-4.5,10-10S17.5,2,12,2z M12,5c1.7,0,3,1.3,3,3
				s-1.3,3-3,3S9,9.7,9,8S10.3,5,12,5z M12,19.2c-2.5,0-4.7-1.3-6-3.2c0-2,4-3.1,6-3.1c2,0,6,1.1,6,3.1C16.7,17.9,14.5,19.2,12,19.2
				z"/>
		</g>
	</g>
</g>
</svg>
