<?xml version="1.0" encoding="UTF-8"?>
<svg width="17px" height="17px" viewBox="0 0 17 17" version="1.1" xmlns="http://www.w3.org/2000/svg" xmlns:xlink="http://www.w3.org/1999/xlink">
    <!-- Generator: Sketch 49.2 (51160) - http://www.bohemiancoding.com/sketch -->
    <title>Shape</title>
    <desc>Created with Sketch.</desc>
    <defs></defs>
    <g id="Symbols" stroke="none" stroke-width="1" fill="none" fill-rule="evenodd" stroke-linecap="round" stroke-linejoin="round">
        <g id="Card_main" transform="translate(-514.000000, -200.000000)" stroke="#585858">
            <g id="Group" transform="translate(500.000000, 192.000000)">
                <g id="phone-call" transform="translate(15.000000, 9.000000)">
                    <path d="M9.32142857,2.85714286 C10.7485639,3.13558332 11.8644167,4.25143609 12.1428571,5.67857143 L9.32142857,2.85714286 Z M9.32142857,0 C12.3068202,0.331653029 14.6645897,2.68645673 15,5.67142857 L9.32142857,0 Z M14.2857143,11.3714286 L14.2857143,13.5142857 C14.287347,13.9165322 14.11932,14.3008274 13.8229128,14.5727606 C13.5265055,14.8446939 13.1291885,14.9790629 12.7285714,14.9428571 C10.5305956,14.7040291 8.41928512,13.9529604 6.56428571,12.75 C4.83844866,11.6533313 3.3752401,10.1901228 2.27857143,8.46428571 C1.0714129,6.60085999 0.320173573,4.47928183 0.0857142857,2.27142857 C0.0496237217,1.87205167 0.183051434,1.47589459 0.453404128,1.17972933 C0.723756822,0.883564063 1.10613874,0.71466335 1.50714286,0.714285714 L3.65,0.714285714 C4.36704575,0.707228459 4.97821489,1.23283392 5.07857143,1.94285714 C5.16901644,2.62861889 5.33674961,3.30194777 5.57857143,3.95 C5.77481072,4.47205359 5.64929648,5.0605759 5.25714286,5.45714286 L4.35,6.36428571 C5.36682534,8.15253274 6.84746726,9.63317466 8.63571429,10.65 L9.54285714,9.74285714 C9.9394241,9.35070352 10.5279464,9.22518928 11.05,9.42142857 C11.6980522,9.66325039 12.3713811,9.83098356 13.0571429,9.92142857 C13.7754019,10.0227574 14.3037072,10.6462804 14.2857143,11.3714286 Z" id="Shape"></path>
                </g>
            </g>
        </g>
    </g>
</svg>