<?xml version="1.0" encoding="UTF-8"?>
<svg width="18px" height="18px" viewBox="0 0 18 18" version="1.1" xmlns="http://www.w3.org/2000/svg" xmlns:xlink="http://www.w3.org/1999/xlink">
    <!-- Generator: Sketch 49.2 (51160) - http://www.bohemiancoding.com/sketch -->
    <title>Shape</title>
    <desc>Created with Sketch.</desc>
    <defs></defs>
    <g id="Symbols" stroke="none" stroke-width="1" fill="none" fill-rule="evenodd">
        <g id="ic/dns/white-copy-2" transform="translate(-3.000000, -3.000000)" fill="#222222" fill-rule="nonzero">
            <g id="ic_dns_24px">
                <path d="M20,13 L4,13 C3.45,13 3,13.45 3,14 L3,20 C3,20.55 3.45,21 4,21 L20,21 C20.55,21 21,20.55 21,20 L21,14 C21,13.45 20.55,13 20,13 Z M7,19 C5.9,19 5,18.1 5,17 C5,15.9 5.9,15 7,15 C8.1,15 9,15.9 9,17 C9,18.1 8.1,19 7,19 Z M20,3 L4,3 C3.45,3 3,3.45 3,4 L3,10 C3,10.55 3.45,11 4,11 L20,11 C20.55,11 21,10.55 21,10 L21,4 C21,3.45 20.55,3 20,3 Z M7,9 C5.9,9 5,8.1 5,7 C5,5.9 5.9,5 7,5 C8.1,5 9,5.9 9,7 C9,8.1 8.1,9 7,9 Z" id="Shape"></path>
            </g>
        </g>
    </g>
</svg>