<?xml version="1.0" encoding="utf-8"?>
<!-- Generator: Adobe Illustrator 18.0.0, SVG Export Plug-In . SVG Version: 6.00 Build 0)  -->
<!DOCTYPE svg PUBLIC "-//W3C//DTD SVG 1.1//EN" "http://www.w3.org/Graphics/SVG/1.1/DTD/svg11.dtd">
<svg version="1.1" id="Layer_1" xmlns="http://www.w3.org/2000/svg" xmlns:xlink="http://www.w3.org/1999/xlink" x="0px" y="0px"
	 width="18px" height="18px" viewBox="0 0 18 18" enable-background="new 0 0 18 18" xml:space="preserve">
<title>Shape</title>
<desc>Created with Sketch.</desc>
<g id="Symbols">
	<g id="ic_x2F_dns_x2F_white-copy-2" transform="translate(-3.000000, -3.000000)">
		<g id="ic_dns_24px">
			<path id="Shape" fill="#44C1C9" d="M20,13H4c-0.5,0-1,0.4-1,1v6c0,0.5,0.5,1,1,1h16c0.5,0,1-0.5,1-1v-6C21,13.4,20.5,13,20,13z
				 M7,19c-1.1,0-2-0.9-2-2s0.9-2,2-2s2,0.9,2,2S8.1,19,7,19z M20,3H4C3.5,3,3,3.5,3,4v6c0,0.6,0.5,1,1,1h16c0.5,0,1-0.4,1-1V4
				C21,3.5,20.5,3,20,3z M7,9C5.9,9,5,8.1,5,7s0.9-2,2-2s2,0.9,2,2S8.1,9,7,9z"/>
		</g>
	</g>
</g>
</svg>
