<?xml version="1.0" encoding="UTF-8"?>
<svg width="18px" height="20px" viewBox="0 0 18 20" version="1.1" xmlns="http://www.w3.org/2000/svg" xmlns:xlink="http://www.w3.org/1999/xlink">
    <!-- Generator: Sketch 49.2 (51160) - http://www.bohemiancoding.com/sketch -->
    <title>Shape</title>
    <desc>Created with Sketch.</desc>
    <defs></defs>
    <g id="Symbols" stroke="none" stroke-width="1" fill="none" fill-rule="evenodd">
        <g id="ic/team_drive/white-copy-2" transform="translate(-3.000000, -2.000000)" fill="#00C4CA" fill-rule="nonzero">
            <g id="ic_team_drive_24px">
                <path d="M19,2 L5,2 C3.9,2 3,2.9 3,3.99 L3,17 L21,17 L21,3.99 C21,2.89 20.11,2 19,2 Z M14.62,6 C15.59,6 16.37,6.79 16.37,7.75 C16.37,8.71 15.6,9.5 14.62,9.5 C13.66,9.5 12.87,8.71 12.87,7.75 C12.87,6.79 13.65,6 14.62,6 Z M9.38,6 C10.35,6 11.13,6.79 11.13,7.75 C11.13,8.71 10.35,9.5 9.38,9.5 C8.42,9.5 7.63,8.71 7.63,7.75 C7.63,6.79 8.41,6 9.38,6 Z M13.75,13 L5,13 L5,12.74 C5,11.28 7.91,10.55 9.38,10.55 C10.85,10.55 13.76,11.28 13.76,12.74 L13.76,13 L13.75,13 Z M19,13 L15.06,13 L15.06,12.74 C15.06,11.83 14.58,11.13 13.89,10.6 C14.15,10.57 14.41,10.55 14.62,10.55 C16.08,10.55 19,11.28 19,12.74 L19,13 Z M3,20.01 C3,21.11 3.89,22 5,22 L19,22 C20.1,22 21,21.1 21,20.01 L21,18 L3,18 L3,20.01 Z M18,19 C18.55,19 19,19.45 19,20 C19,20.55 18.55,21 18,21 C17.45,21 17,20.55 17,20 C17,19.45 17.45,19 18,19 Z" id="Shape"></path>
            </g>
        </g>
    </g>
</svg>