<?xml version="1.0" encoding="utf-8"?>
<!-- Generator: Adobe Illustrator 18.0.0, SVG Export Plug-In . SVG Version: 6.00 Build 0)  -->
<!DOCTYPE svg PUBLIC "-//W3C//DTD SVG 1.1//EN" "http://www.w3.org/Graphics/SVG/1.1/DTD/svg11.dtd">
<svg version="1.1" id="Layer_1" xmlns="http://www.w3.org/2000/svg" xmlns:xlink="http://www.w3.org/1999/xlink" x="0px" y="0px"
	 width="16px" height="18px" viewBox="0 0 16 18" enable-background="new 0 0 16 18" xml:space="preserve">
<title>Shape</title>
<desc>Created with Sketch.</desc>
<g id="Symbols">
	<g id="discount-icon" transform="translate(-4.000000, -3.000000)">
		<g id="ic_file_download_24px">
			<path id="Shape" fill="#44C1C9" d="M12.5,6.9c1.8,0,2.4,0.8,2.5,2.1h2.2c-0.1-1.7-1.1-3.3-3.2-3.8V3h-3v2.2
				c-0.5,0.1-1,0.3-1.5,0.5L11,7.2C11.4,7,11.9,6.9,12.5,6.9z M5.3,4.1L4.1,5.3l3.4,3.4c0,2.1,1.6,3.2,3.9,3.9l3.5,3.5
				c-0.3,0.5-1.1,0.9-2.4,0.9c-2.1,0-2.9-0.9-3-2.1H7.3c0.1,2.2,1.8,3.4,3.7,3.8V21h3v-2.1c1-0.2,1.8-0.6,2.5-1.1l2.2,2.2l1.3-1.3
				L5.3,4.1z"/>
		</g>
	</g>
</g>
</svg>
