<?xml version="1.0" encoding="UTF-8"?>
<svg width="22px" height="22px" viewBox="0 0 22 22" version="1.1" xmlns="http://www.w3.org/2000/svg" xmlns:xlink="http://www.w3.org/1999/xlink">
    <!-- Generator: Sketch 49.2 (51160) - http://www.bohemiancoding.com/sketch -->
    <title>graphic</title>
    <desc>Created with Sketch.</desc>
    <defs></defs>
    <g id="Symbols" stroke="none" stroke-width="1" fill="none" fill-rule="evenodd">
        <g id="Footer" transform="translate(0.000000, -14.000000)">
            <g id="Group">
                <g transform="translate(0.000000, 14.000000)">
                    <g id="graphic">
                        <path d="M19.2832632,0 L2.71673677,0 C1.2161765,0 0,1.22558449 0,2.73775267 L0,19.2622473 C0,20.7741059 1.2161765,22 2.71673677,22 L16.449486,22 L16.449486,19.1439919 C16.449486,17.6321333 17.6656625,16.4062392 19.1659156,16.4062392 L22,16.2671653 L22,2.73775267 C22,1.22558449 20.7835163,0 19.2832632,0 Z M16.6427103,11.4848628 C16.6427103,12.2854087 15.9989109,12.934498 15.2039726,12.934498 L12.9197633,12.934498 L12.9197633,15.2362998 C12.9197633,16.0374649 12.2757335,16.6864768 11.4810256,16.6864768 L10.5189744,16.6864768 C9.72426649,16.6864768 9.07985269,16.0374649 9.07985269,15.2362998 L9.07985269,12.934498 L6.79572025,12.934498 C6.00139633,12.934498 5.35728972,12.2854087 5.35728972,11.4848628 L5.35728972,10.5147503 C5.35728972,9.71428169 6.00139633,9.06519246 6.79572025,9.06519246 L9.07985269,9.06519246 L9.07985269,6.76339063 C9.07985269,5.96222552 9.72426649,5.31344586 10.5189744,5.31344586 L11.4810256,5.31344586 C12.2757335,5.31344586 12.9197633,5.96222552 12.9197633,6.76339063 L12.9197633,9.06519246 L15.2039726,9.06519246 C15.9989109,9.06519246 16.6427103,9.71428169 16.6427103,10.5147503 L16.6427103,11.4848628 Z" id="Fill-1" fill="#93D4CC"></path>
                        <path d="M16,18.9365373 L16,22 L22,16 L19.0069671,16 C17.3461432,16 16,17.3146946 16,18.9365373 Z" id="Fill-2" fill="#FFFFFF"></path>
                        <path d="M14.5976495,8.62869081 L12.3712104,8.62869081 L12.3712104,6.40238716 C12.3712104,5.62749995 11.7434688,5 10.9688599,5 L10.0311401,5 C9.25653118,5 8.6284153,5.62749995 8.6284153,6.40238716 L8.6284153,8.62869081 L6.40205105,8.62869081 C5.62781645,8.62869081 5,9.25649017 5,10.0307037 L5,10.9689969 C5,11.7432853 5.62781645,12.3710846 6.40205105,12.3710846 L8.6284153,12.3710846 L8.6284153,14.5973883 C8.6284153,15.3722755 9.25653118,16 10.0311401,16 L10.9688599,16 C11.7434688,16 12.3712104,15.3722755 12.3712104,14.5973883 L12.3712104,12.3710846 L14.5976495,12.3710846 C15.372483,12.3710846 16,11.7432853 16,10.9689969 L16,10.0307037 C16,9.25649017 15.3721835,8.62869081 14.5976495,8.62869081 Z" id="Fill-3" fill="#FFFFFF"></path>
                    </g>
                </g>
            </g>
        </g>
    </g>
</svg>