<?xml version="1.0" encoding="utf-8"?>
<!-- Generator: Adobe Illustrator 18.0.0, SVG Export Plug-In . SVG Version: 6.00 Build 0)  -->
<!DOCTYPE svg PUBLIC "-//W3C//DTD SVG 1.1//EN" "http://www.w3.org/Graphics/SVG/1.1/DTD/svg11.dtd">
<svg version="1.1" id="Layer_1" xmlns="http://www.w3.org/2000/svg" xmlns:xlink="http://www.w3.org/1999/xlink" x="0px" y="0px"
	 width="18px" height="20px" viewBox="0 0 18 20" enable-background="new 0 0 18 20" xml:space="preserve">
<title>Shape</title>
<desc>Created with Sketch.</desc>
<g id="Symbols">
	<g id="ic_x2F_receipt_x2F_grey600" transform="translate(-3.000000, -2.000000)">
		<g id="ic_receipt_24px">
			<path id="Shape" fill="#44C1C9" d="M18,17H6v-2h12V17z M18,13H6v-2h12V13z M18,9H6V7h12V9z M3,22l1.5-1.5L6,22l1.5-1.5L9,22
				l1.5-1.5L12,22l1.5-1.5L15,22l1.5-1.5L18,22l1.5-1.5L21,22V2l-1.5,1.5L18,2l-1.5,1.5L15,2l-1.5,1.5L12,2l-1.5,1.5L9,2L7.5,3.5
				L6,2L4.5,3.5L3,2V22z"/>
		</g>
	</g>
</g>
</svg>
