<?xml version="1.0" encoding="UTF-8"?>
<svg width="20px" height="18px" viewBox="0 0 20 18" version="1.1" xmlns="http://www.w3.org/2000/svg" xmlns:xlink="http://www.w3.org/1999/xlink">
    <!-- Generator: Sketch 49.3 (51167) - http://www.bohemiancoding.com/sketch -->
    <title>Group</title>
    <desc>Created with Sketch.</desc>
    <defs>
        <path d="M17,5 L3,5 C1.34,5 0,6.34 0,8 L0,14 L4,14 L4,18 L16,18 L16,14 L20,14 L20,8 C20,6.34 18.66,5 17,5 Z M14,16 L6,16 L6,11 L14,11 L14,16 Z M17,9 C16.45,9 16,8.55 16,8 C16,7.45 16.45,7 17,7 C17.55,7 18,7.45 18,8 C18,8.55 17.55,9 17,9 Z M16,0 L4,0 L4,4 L16,4 L16,0 Z" id="path-1"></path>
    </defs>
    <g id="Symbols" stroke="none" stroke-width="1" fill="none" fill-rule="evenodd">
        <g id="ic/file_download/grey600-copy" transform="translate(-2.000000, -3.000000)">
            <g id="ic_print_24px">
                <g id="Group" transform="translate(2.000000, 3.000000)">
                    <mask id="mask-2" fill="white">
                        <use xlink:href="#path-1"></use>
                    </mask>
                    <g id="Shape" fill-rule="nonzero"></g>
                    <g id="c/#000000/0.54" mask="url(#mask-2)" fill="#000000" fill-opacity="0.54">
                        <g transform="translate(-3.000000, -2.000000)" id="Rectangle">
                            <rect x="0" y="0" width="24" height="24"></rect>
                        </g>
                    </g>
                </g>
            </g>
        </g>
    </g>
</svg>