<?xml version="1.0" encoding="UTF-8"?>
<svg width="71px" height="60px" viewBox="0 0 71 60" version="1.1" xmlns="http://www.w3.org/2000/svg" xmlns:xlink="http://www.w3.org/1999/xlink">
    <!-- Generator: Sketch 49.2 (51160) - http://www.bohemiancoding.com/sketch -->
    <title>Page 1</title>
    <desc>Created with Sketch.</desc>
    <defs></defs>
    <g id="Page-1" stroke="none" stroke-width="1" fill="none" fill-rule="evenodd">
        <g id="Dashboard-Campaigns" transform="translate(-467.000000, -312.000000)">
            <g id="Pie-chats" transform="translate(258.000000, 288.000000)">
                <g id="radio" transform="translate(163.000000, 0.000000)">
                    <g id="Page-1" transform="translate(48.000000, 26.000000)">
                        <polygon id="Stroke-1" stroke="#000000" stroke-width="3" points="0 56 67 56 67 9 0 9"></polygon>
                        <polygon id="Stroke-3" stroke="#000000" stroke-width="3" points="7.5 9 59.5 9 59.5 0 7.5 0"></polygon>
                        <path d="M62,37.5 C62,44.403 56.403,50 49.5,50 C42.597,50 37,44.403 37,37.5 C37,30.597 42.597,25 49.5,25 C56.403,25 62,30.597 62,37.5 Z" id="Stroke-4" stroke="#000000" stroke-width="3"></path>
                        <path d="M51.5,37.5 C51.5,38.604 50.604,39.5 49.5,39.5 C48.396,39.5 47.5,38.604 47.5,37.5 C47.5,36.396 48.396,35.5 49.5,35.5 C50.604,35.5 51.5,36.396 51.5,37.5" id="Fill-5" fill="#000000"></path>
                        <path d="M30,37.5 C30,44.403 24.403,50 17.5,50 C10.597,50 5,44.403 5,37.5 C5,30.597 10.597,25 17.5,25 C24.403,25 30,30.597 30,37.5 Z" id="Stroke-6" stroke="#000000" stroke-width="3"></path>
                        <path d="M19.5,37.5 C19.5,38.604 18.604,39.5 17.5,39.5 C16.396,39.5 15.5,38.604 15.5,37.5 C15.5,36.396 16.396,35.5 17.5,35.5 C18.604,35.5 19.5,36.396 19.5,37.5" id="Fill-7" fill="#000000"></path>
                        <path d="M13.5,14.5 C13.5,15.604 12.604,16.5 11.5,16.5 C10.396,16.5 9.5,15.604 9.5,14.5 C9.5,13.396 10.396,12.5 11.5,12.5 C12.604,12.5 13.5,13.396 13.5,14.5" id="Fill-8" fill="#000000"></path>
                        <path d="M21.25,14.5 C21.25,15.604 20.354,16.5 19.25,16.5 C18.146,16.5 17.25,15.604 17.25,14.5 C17.25,13.396 18.146,12.5 19.25,12.5 C20.354,12.5 21.25,13.396 21.25,14.5" id="Fill-9" fill="#000000"></path>
                        <path d="M48.5,14.5 C48.5,15.604 47.604,16.5 46.5,16.5 C45.396,16.5 44.5,15.604 44.5,14.5 C44.5,13.396 45.396,12.5 46.5,12.5 C47.604,12.5 48.5,13.396 48.5,14.5" id="Fill-10" fill="#000000"></path>
                        <path d="M56.25,14.5 C56.25,15.604 55.354,16.5 54.25,16.5 C53.146,16.5 52.25,15.604 52.25,14.5 C52.25,13.396 53.146,12.5 54.25,12.5 C55.354,12.5 56.25,13.396 56.25,14.5" id="Fill-11" fill="#000000"></path>
                    </g>
                </g>
            </g>
        </g>
    </g>
</svg>